{
  "accessors": [
    {
      "bufferView": 2,
      "componentType": 5126,
      "count": 1970,
      "max": [
        408.46148681640625,
        1335.2900390625,
        158.26417541503906
      ],
      "min": [
        -36.4203987121582,
        -50.536888122558594,
        0.0
      ],
      "type": "VEC3"
    },
    {
      "bufferView": 2,
      "byteOffset": 23640,
      "componentType": 5126,
      "count": 1970,
      "max": [
        1.0,
        1.0,
        1.0
      ],
      "min": [
        -1.0,
        -1.0,
        -1.0
      ],
      "type": "VEC3"
    },
    {
      "bufferView": 0,
      "componentType": 5125,
      "count": 3996,
      "type": "SCALAR"
    },
    {
      "bufferView": 2,
      "byteOffset": 47280,
      "componentType": 5126,
      "count": 16,
      "max": [
        308.2677001953125,
        1240.89697265625,
        86.61416625976563
      ],
      "min": [
        302.3622131347656,
        0.0,
        0.0
      ],
      "type": "VEC3"
    },
    {
      "bufferView": 2,
      "byteOffset": 47472,
      "componentType": 5126,
      "count": 16,
      "max": [
        1.0,
        1.0,
        -0.0
      ],
      "min": [
        -1.0,
        -1.0,
        -0.0
      ],
      "type": "VEC3"
    },
    {
      "bufferView": 1,
      "componentType": 5126,
      "count": 16,
      "max": [
        32.655189514160156,
        2.279320001602173
      ],
      "min": [
        -32.655189514160156,
        0.0
      ],
      "type": "VEC2"
    },
    {
      "bufferView": 0,
      "byteOffset": 15984,
      "componentType": 5125,
      "count": 24,
      "type": "SCALAR"
    },
    {
      "bufferView": 2,
      "byteOffset": 47664,
      "componentType": 5126,
      "count": 8,
      "max": [
        408.46148681640625,
        1335.2900390625,
        0.0
      ],
      "min": [
        -36.4203987121582,
        -50.536888122558594,
        0.0
      ],
      "type": "VEC3"
    },
    {
      "bufferView": 2,
      "byteOffset": 47760,
      "componentType": 5126,
      "count": 8,
      "max": [
        0.0,
        0.0,
        1.0
      ],
      "min": [
        0.0,
        0.0,
        1.0
      ],
      "type": "VEC3"
    },
    {
      "bufferView": 1,
      "byteOffset": 128,
      "componentType": 5126,
      "count": 8,
      "max": [
        4.046710968017578,
        74.18276977539063
      ],
      "min": [
        -45.38460922241211,
        -2.807605028152466
      ],
      "type": "VEC2"
    },
    {
      "bufferView": 0,
      "byteOffset": 16080,
      "componentType": 5125,
      "count": 24,
      "type": "SCALAR"
    },
    {
      "bufferView": 2,
      "byteOffset": 47856,
      "componentType": 5126,
      "count": 3072,
      "max": [
        275.143798828125,
        1194.0489501953125,
        0.0
      ],
      "min": [
        0.0,
        42.75017166137695,
        0.0
      ],
      "type": "VEC3"
    },
    {
      "bufferView": 0,
      "byteOffset": 16176,
      "componentType": 5125,
      "count": 6144,
      "type": "SCALAR"
    },
    {
      "bufferView": 2,
      "byteOffset": 84720,
      "componentType": 5126,
      "count": 84,
      "max": [
        83.14515686035156,
        137.37380981445313,
        36.640411376953125
      ],
      "min": [
        69.35285186767578,
        131.3069610595703,
        1.687538997430238e-14
      ],
      "type": "VEC3"
    },
    {
      "bufferView": 2,
      "byteOffset": 85728,
      "componentType": 5126,
      "count": 84,
      "max": [
        0.4026401937007904,
        0.915358304977417,
        2.5691830132225054e-16
      ],
      "min": [
        -0.4026401937007904,
        -0.915358304977417,
        -4.049117125780647e-16
      ],
      "type": "VEC3"
    },
    {
      "bufferView": 0,
      "byteOffset": 40752,
      "componentType": 5125,
      "count": 228,
      "type": "SCALAR"
    },
    {
      "bufferView": 2,
      "byteOffset": 86736,
      "componentType": 5126,
      "count": 37752,
      "max": [
        275.143798828125,
        1194.0494384765625,
        86.61416625976563
      ],
      "min": [
        0.0,
        42.75017166137695,
        0.0
      ],
      "type": "VEC3"
    },
    {
      "bufferView": 2,
      "byteOffset": 539760,
      "componentType": 5126,
      "count": 37752,
      "max": [
        1.0,
        1.0,
        1.0
      ],
      "min": [
        -1.0,
        -1.0,
        -1.0
      ],
      "type": "VEC3"
    },
    {
      "bufferView": 1,
      "byteOffset": 192,
      "componentType": 5126,
      "count": 37752,
      "max": [
        0.07158195972442627,
        1.3123359680175781
      ],
      "min": [
        -0.07158195972442627,
        0.0
      ],
      "type": "VEC2"
    },
    {
      "bufferView": 0,
      "byteOffset": 41664,
      "componentType": 5125,
      "count": 75240,
      "type": "SCALAR"
    },
    {
      "bufferView": 2,
      "byteOffset": 992784,
      "componentType": 5126,
      "count": 182,
      "max": [
        81.60157775878906,
        137.37380981445313,
        66.64005279541016
      ],
      "min": [
        69.35285186767578,
        131.98593139648438,
        1.687538997430238e-14
      ],
      "type": "VEC3"
    },
    {
      "bufferView": 2,
      "byteOffset": 994968,
      "componentType": 5126,
      "count": 182,
      "max": [
        0.4026401937007904,
        0.915358304977417,
        4.049117125780647e-16
      ],
      "min": [
        -0.4026401937007904,
        -0.915358304977417,
        -1.0262219731525595e-16
      ],
      "type": "VEC3"
    },
    {
      "bufferView": 0,
      "byteOffset": 342624,
      "componentType": 5125,
      "count": 522,
      "type": "SCALAR"
    },
    {
      "bufferView": 2,
      "byteOffset": 997152,
      "componentType": 5126,
      "count": 54,
      "max": [
        82.00552368164063,
        137.06021118164063,
        3.806807041168213
      ],
      "min": [
        70.06578063964844,
        131.80825805664063,
        1.397557020187378
      ],
      "type": "VEC3"
    },
    {
      "bufferView": 2,
      "byteOffset": 997800,
      "componentType": 5126,
      "count": 54,
      "max": [
        0.4026401937007904,
        0.915358304977417,
        3.6411699118174188e-16
      ],
      "min": [
        -0.4026401937007904,
        -0.915358304977417,
        -3.6411699118174188e-16
      ],
      "type": "VEC3"
    },
    {
      "bufferView": 0,
      "byteOffset": 344712,
      "componentType": 5125,
      "count": 138,
      "type": "SCALAR"
    },
    {
      "bufferView": 2,
      "byteOffset": 998448,
      "componentType": 5126,
      "count": 254,
      "max": [
        83.64389038085938,
        137.40008544921875,
        56.170860290527344
      ],
      "min": [
        69.29312896728516,
        131.08758544921875,
        1.397557020187378
      ],
      "type": "VEC3"
    },
    {
      "bufferView": 2,
      "byteOffset": 1001496,
      "componentType": 5126,
      "count": 254,
      "max": [
        0.4026401937007904,
        0.915358304977417,
        8.928601825578366e-16
      ],
      "min": [
        -0.4026401937007904,
        -0.915358304977417,
        -8.928601825578366e-16
      ],
      "type": "VEC3"
    },
    {
      "bufferView": 0,
      "byteOffset": 345264,
      "componentType": 5125,
      "count": 690,
      "type": "SCALAR"
    },
    {
      "bufferView": 2,
      "byteOffset": 1004544,
      "componentType": 5126,
      "count": 622,
      "max": [
        88.58815002441406,
        137.87684631347656,
        65.18800354003906
      ],
      "min": [
        68.20924377441406,
        128.91275024414063,
        1.7020390033721924
      ],
      "type": "VEC3"
    },
    {
      "bufferView": 2,
      "byteOffset": 1012008,
      "componentType": 5126,
      "count": 622,
      "max": [
        0.4026401937007904,
        0.915358304977417,
        3.683947881450399e-15
      ],
      "min": [
        -0.4026401937007904,
        -0.915358304977417,
        -6.71843409762651e-15
      ],
      "type": "VEC3"
    },
    {
      "bufferView": 0,
      "byteOffset": 348024,
      "componentType": 5125,
      "count": 1746,
      "type": "SCALAR"
    },
    {
      "bufferView": 2,
      "byteOffset": 1019472,
      "componentType": 5126,
      "count": 9,
      "max": [
        70.60348510742188,
        137.27442932128906,
        30.808900833129883
      ],
      "min": [
        69.57878112792969,
        136.8236846923828,
        30.271259307861328
      ],
      "type": "VEC3"
    },
    {
      "bufferView": 2,
      "byteOffset": 1019580,
      "componentType": 5126,
      "count": 9,
      "max": [
        0.4026401937007904,
        0.915358304977417,
        1.4029020246590792e-15
      ],
      "min": [
        0.4026401937007904,
        0.915358304977417,
        1.4029020246590792e-15
      ],
      "type": "VEC3"
    },
    {
      "bufferView": 0,
      "byteOffset": 355008,
      "componentType": 5125,
      "count": 21,
      "type": "SCALAR"
    },
    {
      "bufferView": 2,
      "byteOffset": 1019688,
      "componentType": 5126,
      "count": 70,
      "max": [
        82.64299774169922,
        137.40008544921875,
        3.6277639865875244
      ],
      "min": [
        69.29312896728516,
        131.52784729003906,
        0.08586473762989044
      ],
      "type": "VEC3"
    },
    {
      "bufferView": 2,
      "byteOffset": 1020528,
      "componentType": 5126,
      "count": 70,
      "max": [
        0.4026401937007904,
        0.915358304977417,
        4.0062440237597784e-16
      ],
      "min": [
        -0.4026401937007904,
        -0.915358304977417,
        -4.0062440237597784e-16
      ],
      "type": "VEC3"
    },
    {
      "bufferView": 0,
      "byteOffset": 355092,
      "componentType": 5125,
      "count": 186,
      "type": "SCALAR"
    },
    {
      "bufferView": 2,
      "byteOffset": 1021368,
      "componentType": 5126,
      "count": 7,
      "max": [
        70.1574935913086,
        137.36148071289063,
        31.103580474853516
      ],
      "min": [
        69.380859375,
        137.01986694335938,
        30.724870681762695
      ],
      "type": "VEC3"
    },
    {
      "bufferView": 2,
      "byteOffset": 1021452,
      "componentType": 5126,
      "count": 7,
      "max": [
        0.4026401937007904,
        0.915358304977417,
        6.71843409762651e-15
      ],
      "min": [
        0.4026401937007904,
        0.915358304977417,
        6.71843409762651e-15
      ],
      "type": "VEC3"
    },
    {
      "bufferView": 0,
      "byteOffset": 355836,
      "componentType": 5125,
      "count": 15,
      "type": "SCALAR"
    },
    {
      "bufferView": 2,
      "byteOffset": 1021536,
      "componentType": 5126,
      "count": 11,
      "max": [
        85.83657836914063,
        137.72959899902344,
        60.190921783447266
      ],
      "min": [
        68.54399108886719,
        130.12307739257813,
        30.07501983642578
      ],
      "type": "VEC3"
    },
    {
      "bufferView": 0,
      "byteOffset": 355896,
      "componentType": 5125,
      "count": 12,
      "type": "SCALAR"
    },
    {
      "bufferView": 2,
      "byteOffset": 1021668,
      "componentType": 5126,
      "count": 1540,
      "max": [
        273.4986267089844,
        1191.7073974609375,
        158.26417541503906
      ],
      "min": [
        -2.490072011947632,
        44.95787811279297,
        86.61416625976563
      ],
      "type": "VEC3"
    },
    {
      "bufferView": 2,
      "byteOffset": 1040148,
      "componentType": 5126,
      "count": 1540,
      "max": [
        1.0,
        1.0,
        0.9718279242515564
      ],
      "min": [
        -1.0,
        -1.0,
        -0.7438763976097107
      ],
      "type": "VEC3"
    },
    {
      "bufferView": 1,
      "byteOffset": 302208,
      "componentType": 5126,
      "count": 1540,
      "max": [
        3.805773973464966,
        2.2397611141204834
      ],
      "min": [
        -3.805773973464966,
        -3.6346449851989746
      ],
      "type": "VEC2"
    },
    {
      "bufferView": 0,
      "byteOffset": 355944,
      "componentType": 5125,
      "count": 3300,
      "type": "SCALAR"
    }
  ],
  "asset": {
    "extras": {
      "author": "javier.gutierrez.p (https://sketchfab.com/javier.gutierrez.p)",
      "license": "CC-BY-4.0 (http://creativecommons.org/licenses/by/4.0/)",
      "source": "https://sketchfab.com/3d-models/patroncito-3d-eba982611412435fa640ae820551111d",
      "title": "Patroncito 3D"
    },
    "generator": "Sketchfab-15.25.0",
    "version": "2.0"
  },
  "bufferViews": [
    {
      "buffer": 0,
      "byteLength": 369144,
      "name": "floatBufferViews",
      "target": 34963
    },
    {
      "buffer": 0,
      "byteLength": 314528,
      "byteOffset": 369144,
      "byteStride": 8,
      "name": "floatBufferViews",
      "target": 34962
    },
    {
      "buffer": 0,
      "byteLength": 1058628,
      "byteOffset": 683672,
      "byteStride": 12,
      "name": "floatBufferViews",
      "target": 34962
    }
  ],
  "buffers": [
    {
      "byteLength": 1742300,
      "uri": "scene.bin"
    }
  ],
  "images": [
    {
      "uri": "textures/Vegetation_Bark_Maple_baseColor.jpeg"
    },
    {
      "uri": "textures/Wood_Plywood_Knots_baseColor.jpeg"
    },
    {
      "uri": "textures/Wood_Cherry_Original_baseColor.jpeg"
    }
  ],
  "materials": [
    {
      "name": "material",
      "pbrMetallicRoughness": {
        "metallicFactor": 0.0,
        "roughnessFactor": 0.9
      }
    },
    {
      "name": "Cladding_Siding_White",
      "pbrMetallicRoughness": {
        "baseColorFactor": [
          0.5,
          0.5,
          0.5,
          1.0
        ],
        "metallicFactor": 0.0,
        "roughnessFactor": 0.9
      }
    },
    {
      "name": "Vegetation_Bark_Maple",
      "pbrMetallicRoughness": {
        "baseColorTexture": {
          "index": 0
        },
        "metallicFactor": 0.0,
        "roughnessFactor": 0.9
      }
    },
    {
      "name": "edge_color00255255",
      "pbrMetallicRoughness": {
        "baseColorFactor": [
          0.5,
          0.5,
          0.5,
          1.0
        ],
        "metallicFactor": 0.0,
        "roughnessFactor": 0.9
      }
    },
    {
      "name": "Sophie_Skirt",
      "pbrMetallicRoughness": {
        "baseColorFactor": [
          0.0,
          0.0,
          0.0,
          1.0
        ],
        "metallicFactor": 0.0,
        "roughnessFactor": 0.9
      }
    },
    {
      "name": "Wood_Plywood_Knots",
      "pbrMetallicRoughness": {
        "baseColorTexture": {
          "index": 1
        },
        "metallicFactor": 0.0,
        "roughnessFactor": 0.9
      }
    },
    {
      "name": "Sophie_Hair",
      "pbrMetallicRoughness": {
        "baseColorFactor": [
          0.027451,
          0.0117647,
          0.00784314,
          1.0
        ],
        "metallicFactor": 0.0,
        "roughnessFactor": 0.9
      }
    },
    {
      "name": "Sophie_Shoes",
      "pbrMetallicRoughness": {
        "baseColorFactor": [
          0.2,
          0.176471,
          0.156863,
          1.0
        ],
        "metallicFactor": 0.0,
        "roughnessFactor": 0.9
      }
    },
    {
      "name": "Sophie_Shirt_Gray",
      "pbrMetallicRoughness": {
        "baseColorFactor": [
          0.376471,
          0.376471,
          0.376471,
          1.0
        ],
        "metallicFactor": 0.0,
        "roughnessFactor": 0.9
      }
    },
    {
      "name": "Sophie_Skin",
      "pbrMetallicRoughness": {
        "baseColorFactor": [
          0.709804,
          0.592157,
          0.423529,
          1.0
        ],
        "metallicFactor": 0.0,
        "roughnessFactor": 0.9
      }
    },
    {
      "name": "Sophie_Shirt_Red",
      "pbrMetallicRoughness": {
        "baseColorFactor": [
          0.392157,
          0.0431373,
          0.0823529,
          1.0
        ],
        "metallicFactor": 0.0,
        "roughnessFactor": 0.9
      }
    },
    {
      "name": "Sophie_Shoes2",
      "pbrMetallicRoughness": {
        "baseColorFactor": [
          0.137255,
          0.137255,
          0.137255,
          1.0
        ],
        "metallicFactor": 0.0,
        "roughnessFactor": 0.9
      }
    },
    {
      "name": "Sophie_Shirt_Blue",
      "pbrMetallicRoughness": {
        "baseColorFactor": [
          0.203922,
          0.286274,
          0.407843,
          1.0
        ],
        "metallicFactor": 0.0,
        "roughnessFactor": 0.9
      }
    },
    {
      "name": "edge_color969696255",
      "pbrMetallicRoughness": {
        "baseColorFactor": [
          0.5,
          0.5,
          0.5,
          1.0
        ],
        "metallicFactor": 0.0,
        "roughnessFactor": 0.9
      }
    },
    {
      "name": "Wood_Cherry_Original",
      "pbrMetallicRoughness": {
        "baseColorTexture": {
          "index": 2
        },
        "metallicFactor": 0.0,
        "roughnessFactor": 0.9
      }
    }
  ],
  "meshes": [
    {
      "name": "Material2",
      "primitives": [
        {
          "attributes": {
            "NORMAL": 1,
            "POSITION": 0
          },
          "indices": 2,
          "material": 0,
          "mode": 4
        }
      ]
    },
    {
      "name": "Material2",
      "primitives": [
        {
          "attributes": {
            "NORMAL": 4,
            "POSITION": 3,
            "TEXCOORD_0": 5
          },
          "indices": 6,
          "material": 1,
          "mode": 4
        }
      ]
    },
    {
      "name": "Material3",
      "primitives": [
        {
          "attributes": {
            "NORMAL": 8,
            "POSITION": 7,
            "TEXCOORD_0": 9
          },
          "indices": 10,
          "material": 2,
          "mode": 4
        }
      ]
    },
    {
      "name": "Material2",
      "primitives": [
        {
          "attributes": {
            "POSITION": 11
          },
          "indices": 12,
          "material": 3,
          "mode": 1
        }
      ]
    },
    {
      "name": "Material2",
      "primitives": [
        {
          "attributes": {
            "NORMAL": 14,
            "POSITION": 13
          },
          "indices": 15,
          "material": 4,
          "mode": 4
        }
      ]
    },
    {
      "name": "Material2",
      "primitives": [
        {
          "attributes": {
            "NORMAL": 17,
            "POSITION": 16,
            "TEXCOORD_0": 18
          },
          "indices": 19,
          "material": 5,
          "mode": 4
        }
      ]
    },
    {
      "name": "Material3",
      "primitives": [
        {
          "attributes": {
            "NORMAL": 21,
            "POSITION": 20
          },
          "indices": 22,
          "material": 6,
          "mode": 4
        }
      ]
    },
    {
      "name": "Material2",
      "primitives": [
        {
          "attributes": {
            "NORMAL": 24,
            "POSITION": 23
          },
          "indices": 25,
          "material": 7,
          "mode": 4
        }
      ]
    },
    {
      "name": "Material2",
      "primitives": [
        {
          "attributes": {
            "NORMAL": 27,
            "POSITION": 26
          },
          "indices": 28,
          "material": 8,
          "mode": 4
        }
      ]
    },
    {
      "name": "Material2",
      "primitives": [
        {
          "attributes": {
            "NORMAL": 30,
            "POSITION": 29
          },
          "indices": 31,
          "material": 9,
          "mode": 4
        }
      ]
    },
    {
      "name": "Material3",
      "primitives": [
        {
          "attributes": {
            "NORMAL": 33,
            "POSITION": 32
          },
          "indices": 34,
          "material": 10,
          "mode": 4
        }
      ]
    },
    {
      "name": "Material2",
      "primitives": [
        {
          "attributes": {
            "NORMAL": 36,
            "POSITION": 35
          },
          "indices": 37,
          "material": 11,
          "mode": 4
        }
      ]
    },
    {
      "name": "Material3",
      "primitives": [
        {
          "attributes": {
            "NORMAL": 39,
            "POSITION": 38
          },
          "indices": 40,
          "material": 12,
          "mode": 4
        }
      ]
    },
    {
      "name": "Material2",
      "primitives": [
        {
          "attributes": {
            "POSITION": 41
          },
          "indices": 42,
          "material": 13,
          "mode": 1
        }
      ]
    },
    {
      "name": "Material3",
      "primitives": [
        {
          "attributes": {
            "NORMAL": 44,
            "POSITION": 43,
            "TEXCOORD_0": 45
          },
          "indices": 46,
          "material": 14,
          "mode": 4
        }
      ]
    }
  ],
  "nodes": [
    {
      "children": [
        1
      ],
      "matrix": [
        1.0,
        0.0,
        0.0,
        0.0,
        0.0,
        2.220446049250313e-16,
        -1.0,
        0.0,
        0.0,
        1.0,
        2.220446049250313e-16,
        0.0,
        0.0,
        0.0,
        0.0,
        1.0
      ],
      "name": "Sketchfab_model"
    },
    {
      "children": [
        2,
        3,
        4,
        5,
        6,
        7,
        8,
        9,
        10,
        11,
        12,
        13,
        14,
        15,
        16
      ],
      "name": "Collada visual scene group"
    },
    {
      "mesh": 0,
      "name": "Material2"
    },
    {
      "mesh": 1,
      "name": "Material2"
    },
    {
      "mesh": 2,
      "name": "Material3"
    },
    {
      "mesh": 3,
      "name": "Material2"
    },
    {
      "mesh": 4,
      "name": "Material2"
    },
    {
      "mesh": 5,
      "name": "Material2"
    },
    {
      "mesh": 6,
      "name": "Material3"
    },
    {
      "mesh": 7,
      "name": "Material2"
    },
    {
      "mesh": 8,
      "name": "Material2"
    },
    {
      "mesh": 9,
      "name": "Material2"
    },
    {
      "mesh": 10,
      "name": "Material3"
    },
    {
      "mesh": 11,
      "name": "Material2"
    },
    {
      "mesh": 12,
      "name": "Material3"
    },
    {
      "mesh": 13,
      "name": "Material2"
    },
    {
      "mesh": 14,
      "name": "Material3"
    }
  ],
  "samplers": [
    {
      "magFilter": 9729,
      "minFilter": 9987,
      "wrapS": 10497,
      "wrapT": 10497
    }
  ],
  "scene": 0,
  "scenes": [
    {
      "name": "Sketchfab_Scene",
      "nodes": [
        0
      ]
    }
  ],
  "textures": [
    {
      "sampler": 0,
      "source": 0
    },
    {
      "sampler": 0,
      "source": 1
    },
    {
      "sampler": 0,
      "source": 2
    }
  ]
}
